<?xml version="1.0" encoding="UTF-8" standalone="no"?>
<!DOCTYPE svg PUBLIC "-//W3C//DTD SVG 1.1//EN" "http://www.w3.org/Graphics/SVG/1.1/DTD/svg11.dtd">
<svg width="100%" height="100%" viewBox="0 0 4034 3015" version="1.1"
    xmlns="http://www.w3.org/2000/svg"
    xmlns:xlink="http://www.w3.org/1999/xlink" xml:space="preserve"
    xmlns:serif="http://www.serif.com/" style="fill-rule:evenodd;clip-rule:evenodd;">
    <g transform="matrix(1,0,0,1,-91.391,-92.9979)">
        <g transform="matrix(4.16667,0,0,4.16667,0,0)">
            <g id="flame">
                <g transform="matrix(1,0,0,1,445.931,591.117)">
                    <path d="M0,58.209C0,58.209 11.542,72.76 -23.584,94.338C-58.711,115.916 -73.263,119.93 -124.446,117.922C-175.629,115.916 -251.401,98.855 -255.415,97.35C-255.415,97.35 -251.903,91.83 -224.806,80.791C-224.806,80.791 -256.921,81.793 -257.422,71.256C-257.422,71.256 -27.6,-61.721 -12.545,35.127C-12.545,35.127 -1.506,55.699 0,58.209Z" style="fill:#fdb721;fill-rule:nonzero;stroke:#ed1c28;stroke-width:0.51px;"/>
                </g>
                <g transform="matrix(-0.124027,-0.992279,-0.992279,0.124027,316.357,541.589)">
                    <path d="M-128.454,-98.344C-128.454,-98.344 -162.998,-71.268 -154.783,-5.544C-146.567,60.183 -134.118,119.31 -128.454,107.982C-122.791,96.655 -63.538,-3.799 -86.692,-51.476C-109.845,-99.152 -118.497,-99.588 -128.454,-98.344" style="fill:#ffd793;fill-rule:nonzero;"/>
                </g>
                <g transform="matrix(1,0,0,1,409.802,652.838)">
                    <path d="M0,9.535C0,9.535 -3.011,19.072 -41.147,25.594C-79.285,32.115 -121.463,26.596 -117.421,23.084C-113.379,19.572 -77.278,8.029 -77.278,8.029C-77.278,8.029 -123.442,15.055 -109.894,9.033C-96.346,3.012 -64.23,-3.01 -62.223,-3.01C-60.216,-3.01 -121.171,1.004 -103.991,-4.014C-86.811,-9.029 -25.09,-22.58 -10.036,-16.057C5.017,-9.533 4.014,3.512 0,9.535" style="fill:#fffac0;fill-rule:nonzero;"/>
                </g>
                <g transform="matrix(1,0,0,1,332.023,577.568)">
                    <path d="M0,46.168C0,46.168 9.534,57.707 -55.198,81.795C-119.931,105.879 -137.995,90.826 -137.995,90.826C-137.995,90.826 -199.214,93.334 -192.189,89.32C-185.164,85.307 -178.139,82.297 -178.139,82.297C-178.139,82.297 -196.705,76.775 -214.77,77.277C-232.834,77.779 -250.397,77.277 -255.415,74.768C-260.434,72.26 -267.458,68.746 -267.458,68.746C-267.458,68.746 -318.14,71.758 -307.602,65.736C-297.064,59.715 -217.279,30.611 -217.279,30.611C-217.279,30.611 -247.888,28.605 -234.841,22.582C-221.794,16.561 -174.124,-5.518 -142.009,-18.564C-109.894,-31.613 -63.729,-59.711 -14.05,-28.602C35.627,2.51 0,46.168 0,46.168Z" style="fill:#fdb721;fill-rule:nonzero;stroke:#ed1c28;stroke-width:0.51px;"/>
                </g>
                <g transform="matrix(1,0,0,1,318.475,572.548)">
                    <path d="M0,50.184C0,50.184 -29.606,77.28 -53.692,81.293C-77.779,85.307 -103.371,92.332 -101.364,85.307C-99.356,78.284 -95.343,71.26 -104.375,72.26C-113.407,73.264 -155.056,87.317 -146.023,78.284C-136.991,69.252 -123.442,64.233 -136.489,64.233C-149.537,64.233 -258.425,69.252 -234.34,60.219C-210.253,51.188 -146.023,43.159 -156.06,42.155C-166.095,41.151 -195.199,38.641 -182.153,33.121C-169.106,27.602 -133.98,18.569 -141.005,18.069C-148.03,17.565 -124.948,-3.007 -91.328,-14.548C-57.707,-26.089 44.158,-42.148 0,50.184" style="fill:#ffd793;fill-rule:nonzero;"/>
                </g>
                <g transform="matrix(1,0,0,1,306.934,579.575)">
                    <path d="M0,28.105C-1.568,41.369 -57.206,63.732 -56.201,57.709C-55.199,51.687 -27.097,32.117 -39.141,36.132C-51.185,40.146 -85.809,54.699 -80.79,48.173C-75.772,41.652 -45.664,28.605 -53.694,29.609C-61.722,30.611 -117.923,44.162 -105.88,38.642C-93.837,33.121 -46.166,17.064 -56.704,19.57C-67.241,22.08 -111.4,27.099 -99.356,22.582C-87.313,18.066 -41.148,10.539 -52.188,10.539C-63.227,10.539 -99.356,12.546 -89.321,6.525C-79.284,0.503 7.526,-35.627 0,28.105" style="fill:#fffac0;fill-rule:nonzero;"/>
                </g>
            </g>
        </g>
        <g transform="matrix(4.16667,0,0,4.16667,0,0)">
            <g id="background" transform="matrix(1,0,0,1,932.152,640.529)">
                <path d="M0,-512.341L-54.237,-606.214L-62.059,-618.209C-68.685,-596.357 -75.254,-574.505 -86.571,-554.584C-134.446,-563.606 -184.407,-555.574 -220.601,-525.378C-231.5,-516.199 -238.279,-504.883 -246.678,-495.131L-314.475,-476.356L-340.551,-468.533L-340.551,-467.49C-317.133,-446.421 -294.343,-423.631 -273.275,-400.214L-272.753,-396.042C-276.561,-392.913 -280.888,-390.879 -284.228,-386.654C-295.333,-374.607 -296.326,-355.103 -289.442,-340.761C-276.717,-318.231 -252.935,-302.9 -226.86,-305.298C-225.397,-303.785 -225.139,-301.803 -224.251,-300.085C-223.573,-295.547 -215.543,-291.373 -220.601,-287.044C-240.262,-298.518 -262.845,-306.08 -287.355,-302.691C-343.729,-316.615 -404.019,-321.101 -466.236,-320.944C-512.964,-328.923 -564.073,-334.19 -613.305,-328.245C-649.394,-345.455 -691.636,-330.591 -725.43,-318.858C-734.87,-317.189 -743.997,-319.43 -752.55,-321.466C-761.989,-322.091 -773.306,-327.358 -781.754,-320.944C-785.3,-315.153 -784.674,-307.018 -781.754,-301.125C-779.564,-293.044 -767.83,-292.574 -768.194,-283.915C-763.866,-278.024 -756.982,-276.144 -750.463,-274.53C-741.65,-272.702 -733.409,-275.571 -724.909,-276.092C-720.998,-271.869 -717.19,-267.644 -716.564,-262.011C-716.617,-259.091 -719.016,-256.172 -721.78,-255.232C-734.661,-255.964 -746.239,-253.458 -754.636,-243.236C-759.798,-236.769 -760.164,-227.384 -757.243,-219.769C-751.245,-211.788 -739.146,-213.148 -730.125,-214.552C-711.505,-219.665 -698.52,-208.034 -682.145,-206.208C-662.222,-208.034 -645.325,-217.056 -627.906,-224.982C-584.985,-213.405 -536.954,-212.571 -489.704,-212.987L-421.387,-210.902L-347.33,-209.339C-354.995,-204.278 -363.342,-198.544 -371.321,-193.169C-394.317,-193.952 -412.989,-180.185 -428.687,-162.923L-450.725,-154.907C-454.532,-153.564 -457.786,-152.333 -460.459,-151.286C-460.769,-151.314 -461.077,-151.359 -461.385,-151.409C-465.486,-153.864 -469.466,-155.503 -472.998,-156.599C-477.391,-158.14 -479.182,-158.546 -482.925,-158.753C-512.756,-162.142 -540.969,-150.667 -555.937,-124.329C-571.008,-119.325 -585.35,-112.753 -599.745,-106.075C-618.102,-95.439 -646.107,-91.632 -651.375,-65.921C-657.528,-46.155 -649.08,-26.757 -633.643,-13.769C-617.007,1.77 -591.921,-6.103 -571.062,-6.989L-570.018,-5.945C-571.426,-2.294 -569.653,1.356 -569.496,5.007C-566.367,17.888 -552.39,29.048 -539.77,31.081C-504.88,28.577 -470.46,25.083 -437.031,19.087C-427.8,20.233 -417.89,21.329 -408.348,20.132C-385.295,17.522 -361.255,1.77 -354.632,-21.591C-352.232,-24.669 -347.435,-24.095 -344.202,-26.284C-328.294,-27.222 -313.015,-29.78 -299.352,-36.195C-289.39,-44.538 -276.143,-44.956 -264.931,-50.275L-264.409,-49.753C-266.339,-44.695 -268.997,-40.003 -270.146,-34.628C-273.743,-29.831 -280.314,-26.702 -284.228,-21.591C-288.449,-12.935 -299.352,-6.989 -301.958,2.397C-302.063,6.622 -304.46,13.038 -299.872,15.96C-295.439,18.356 -290.327,16.112 -286.313,14.393C-284.538,15.749 -283.86,17.522 -282.662,19.087C-282.343,22.782 -282.238,26.573 -281.717,30.196C-281.632,30.85 -281.514,31.544 -281.363,32.268C-280.983,34.171 -280.452,36.007 -279.664,37.743C-278.486,40.6 -276.723,43.729 -274.124,46.999C-273.454,52.241 -275.834,58.366 -273.796,63.415C-271.499,68.317 -266.441,70.977 -261.28,71.239C-253.873,79.53 -261.383,93.975 -250.849,100.966C-246.261,105.034 -239.74,105.868 -233.64,104.616C-230.094,102.684 -228.319,99.085 -228.425,95.229C-223.625,90.118 -224.563,82.659 -223.73,75.932C-210.536,63.624 -204.12,47.561 -204.956,28.995C-178.774,2.085 -161.096,-29.259 -146.024,-61.228C-125.424,-92.935 -105.397,-124.903 -97.523,-161.88C-90.848,-184.722 -100.339,-207.462 -118.383,-221.331C-116.767,-222.532 -114.941,-223.212 -113.168,-223.941C-78.121,-217.111 -39.636,-220.706 -11.994,-241.152C3.13,-252.208 14.916,-267.751 10.43,-286.524C29.102,-307.332 43.704,-329.81 52.152,-354.842C69.572,-414.608 44.746,-471.61 0,-512.341" style="fill:#231f20;fill-rule:nonzero;"/>
            </g>
        </g>
        <g transform="matrix(4.16667,0,0,4.16667,0,0)">
            <g id="astro">
                <g transform="matrix(1,0,0,1,703.159,303.385)">
                    <path d="M0,-47.685C-6.962,-53.574 -17.842,-55.307 -23.197,-55.307C-28.551,-55.307 -29.011,-49.264 -24.191,-57.295C-22.41,-60.266 -21.209,-58.234 -15.98,-58.953C-16.156,-58.96 -19.592,-61.706 -19.771,-61.711C-24.43,-61.727 -29.11,-61.133 -33.601,-59.893C-38.542,-56.786 -47.584,-52.008 -50.044,-48.729C-54.861,-42.304 -52.838,-35.181 -45.342,-33.574C-37.848,-31.968 -29.252,-25.956 -22.826,-21.137C-16.404,-16.319 -6.512,-0.475 -4.907,5.414C-3.301,11.304 10.249,14.042 13.998,7.616C17.748,1.191 21.576,-15.267 20.508,-30.792C20.459,-31.478 18.932,-36.841 18.841,-37.517C18.097,-36.925 10.175,-38.756 9.279,-38.756C4.996,-38.756 6.958,-41.796 0,-47.685" style="fill:#fddaca;fill-rule:nonzero;"/>
                </g>
                <g transform="matrix(1,0,0,1,683.92,272.592)">
                    <path d="M0,-30.891C-5.229,-30.172 -9.939,-28.668 -11.721,-25.698C-16.54,-17.667 -10.65,-19.808 -5.297,-19.808C0.059,-19.808 12.37,-17.132 19.332,-11.243C26.29,-5.354 26.29,0 30.573,0C31.469,0 32.293,-0.377 33.037,-0.969C32.085,-8.196 28.871,-14.832 25.851,-19.703C18.678,-26.178 9.764,-30.503 0,-30.891" style="fill:#fee7db;fill-rule:nonzero;"/>
                </g>
                <g transform="matrix(1,0,0,1,788.144,159.086)">
                    <path d="M0,211.085C-29.981,177.354 -43.763,143.917 -21.812,110.725C-21.812,110.725 -34.812,81.019 -17.145,46.753C-2.559,18.465 72.188,-11.241 56.07,-35.989C1.895,-31.556 -44.387,2.485 -72.423,49.732C-63.711,52.235 -54.323,53.226 -45.304,54.947L-43.739,56.513C-56.044,68.038 -66.213,81.336 -72.942,95.626C-71.325,98.338 -69.501,100.893 -68.771,103.971L-69.291,104.491C-71.846,100.563 -74.906,96.933 -78.374,93.802C-75.073,99.129 -71.527,106.564 -70.972,114.577C-69.903,130.103 -70.972,139.739 -74.722,146.164C-78.471,152.59 -81.682,149.377 -83.288,143.487C-84.893,137.599 -95.067,121.001 -101.489,116.183C-107.915,111.364 -117.018,107.082 -124.512,105.476C-132.008,103.869 -135.219,101.192 -130.401,94.768C-127.941,91.488 -123.527,87.512 -118.586,84.405C-128.265,87.078 -137.055,92.764 -142.825,101.884C-151.325,114.871 -147.57,134.427 -139.177,146.212C-122.852,167.281 -98.548,179.695 -71.9,171.767L-71.378,172.289C-73.933,174.219 -76.958,175.053 -79.723,176.462C-62.015,211.562 -27.472,232.777 6.588,247.074C-3.545,240.761 9.252,221.491 0,211.085" style="fill:#f2c4b1;fill-rule:nonzero;"/>
                </g>
                <g transform="matrix(1,0,0,1,935.215,190.409)">
                    <path d="M0,158.592C0,158.592 27.471,139.793 39.785,104.992C51.097,73.031 52.777,9.259 16.532,-13.154C10.76,-10.471 4.997,-7.781 -0.976,-5.58C-11.979,-24.511 -24.652,-42.764 -36.438,-61.382C-45.146,-64.876 -55.214,-65.189 -64.602,-67.119C-73.573,-67.977 -82.385,-68.017 -91,-67.312C-144.067,-47.425 -167.052,-17.312 -181.638,10.977C-199.305,45.242 -190.738,78.97 -190.738,78.97C-212.689,112.163 -200.377,157.135 -170.396,190.867C-161.144,201.273 -150.615,209.439 -140.482,215.751C-135.322,217.921 -130.173,219.929 -125.097,221.8C-115.733,224.234 -106.044,225.876 -96.304,226.609C-79.07,225.417 -56.422,224.437 -41.154,215.751C-10.104,198.081 9.634,180.007 0,158.592" style="fill:#fddaca;fill-rule:nonzero;"/>
                </g>
                <g transform="matrix(1,0,0,1,987.955,350.188)">
                    <path d="M0,-107.471C-2.763,-133.234 -9.489,-157.849 -27.642,-176.833C-30.517,-175.575 -33.362,-174.255 -36.208,-172.933C-2.979,-144.239 -5.7,-86.537 -17.012,-54.575C-29.326,-19.775 -57.699,-1.571 -57.699,-1.571C-48.065,19.843 -64.662,35.905 -95.713,53.575C-110.98,62.261 -131.811,65.638 -149.044,66.829C-115.33,69.362 -80.995,60.911 -57.366,35.948C-50.431,26.662 -42.085,15.295 -48.501,3.092C-19.817,-28.616 1.042,-63.507 0,-107.471" style="fill:#fee7db;fill-rule:nonzero;"/>
                </g>
                <g transform="matrix(1,0,0,1,872.022,231.93)">
                    <path d="M0,-18.778C-1.337,-24.132 -2.969,-21.749 -4.084,-15.808C-5.199,-9.868 -6.311,-3.185 -7.055,0.157C-7.795,3.498 -10.023,5.354 -3.713,5.354C2.6,5.354 4.457,2.385 4.085,-3.927C3.713,-10.238 0.372,-17.293 0,-18.778" style="fill:#f2c4b1;fill-rule:nonzero;"/>
                </g>
                <g transform="matrix(1,0,0,1,904.694,234.686)">
                    <path d="M0,-17.079C0,-17.079 1.855,-8.169 -2.227,-4.456C-6.312,-0.743 -6.312,0 -15.593,0C-15.593,0 -3.341,-9.654 0,-17.079" style="fill:#f2c4b1;fill-rule:nonzero;"/>
                </g>
                <g transform="matrix(0.203928,-0.978986,-0.978986,-0.203928,951.16,257.935)">
                    <path d="M-3.36,9.977C-3.36,9.977 -11.053,15.96 -9.311,16.7C-7.568,17.442 -5.252,19.063 -3.36,19.079C-1.466,19.092 18.827,3.6 6.863,-2.684C-5.102,-8.967 0.366,8.479 -3.36,9.977" style="fill:#f2c4b1;fill-rule:nonzero;"/>
                </g>
                <g transform="matrix(-0.99655,0.0829899,0.0829899,0.99655,817.015,333.058)">
                    <path d="M10.054,9.607L14.525,9.607C14.525,9.607 13.414,0.758 5.643,1.405C-2.125,2.052 -4.87,0.418 -4.191,4.087L10.054,9.607Z" style="fill:#f2c4b1;fill-rule:nonzero;"/>
                </g>
                <g transform="matrix(1,0,0,1,825.245,384.34)">
                    <path d="M0,-6.344C-2.114,-7.051 -5.199,-5.975 -4.087,-3.003C-2.972,-0.035 -0.372,0.707 2.225,-0.778C4.825,-2.26 2.225,-5.604 0,-6.344" style="fill:#f2c4b1;fill-rule:nonzero;"/>
                </g>
                <g transform="matrix(1,0,0,1,810.765,296.183)">
                    <path d="M0,-9.891C-4.802,-10.396 -6.312,-7.664 -5.196,-3.952C-4.085,-0.238 -1.857,0.505 1.112,-0.238C4.085,-0.98 7.054,-9.149 0,-9.891" style="fill:#fee7db;fill-rule:nonzero;"/>
                </g>
                <g transform="matrix(0,-1,-1,0,917.502,347.363)">
                    <path d="M-4.27,-4.271C-6.527,-4.271 -8.355,-2.359 -8.355,-0.001C-8.355,2.358 -6.527,4.27 -4.27,4.27C-2.018,4.27 -0.186,2.358 -0.186,-0.001C-0.186,-2.359 -2.018,-4.271 -4.27,-4.271" style="fill:#fee7db;fill-rule:nonzero;"/>
                </g>
                <g transform="matrix(1,0,0,1,826.807,114.837)">
                    <path d="M0,-17.941C-29.049,-13.456 -58.461,-9.91 -84.484,1.877C-87.094,2.555 -89.703,4.85 -92.309,3.963C-90.588,0.156 -86.52,-2.347 -83.443,-4.902C-64.771,-15.907 -43.547,-20.757 -20.861,-22.112C-13.821,-20.966 -5.058,-22.791 0,-17.941" style="fill:#fff;fill-rule:nonzero;"/>
                </g>
                <g transform="matrix(1,0,0,1,853.404,97.9379)">
                    <path d="M0,1.045C-3.7,4.173 -9.022,1.827 -13.038,1.045C-13.401,0.523 -14.289,0.211 -14.081,-0.52C-10.013,-3.128 -2.92,-2.605 0,1.045" style="fill:#fff;fill-rule:nonzero;"/>
                </g>
                <g transform="matrix(1,0,0,1,840.888,171.473)">
                    <path d="M0,-3.65L-0.521,0L0,-3.65Z" style="fill:#231f20;fill-rule:nonzero;"/>
                </g>
                <g transform="matrix(1,0,0,1,867.647,205.372)">
                    <path d="M0,0.468L1.402,0C0.882,0.112 0.42,0.272 0,0.468" style="fill:#231f20;fill-rule:nonzero;"/>
                </g>
                <g transform="matrix(1,0,0,1,858.098,243.391)">
                    <path d="M0,-66.181C1.354,-67.067 1.308,-71.938 2.696,-70.786C2.846,-70.662 3.108,-69.864 3.13,-69.831C6.415,-64.825 8.814,-59.453 11.474,-54.186C10.379,-52.048 8.137,-52.674 6.778,-51.057C5.321,-56.429 3.807,-61.8 0,-66.181M11.996,-53.143C17.576,-43.39 19.974,-32.283 23.989,-21.853C22.32,-41.669 12.101,-57.941 2.607,-74.526C-3.754,-83.652 -12.933,-92.517 -23.469,-94.864C-45.319,-98.567 -62.426,-86.676 -76.663,-71.396C-65.45,-80.314 -53.561,-89.858 -39.636,-93.3C-21.955,-97.107 -7.353,-86.833 2.086,-72.439C1.72,-70.301 0.458,-68.61 -1.001,-66.942C-6.083,-68.995 -10.638,-70.762 -16.529,-70.878C-16.926,-70.886 -17.806,-87.205 -17.731,-70.875C-23.104,-68.788 -28.275,-68.277 -33.178,-65.097C-34.847,-67.025 -34.837,-69.466 -36.506,-71.396C-35.828,-69.153 -35.098,-66.859 -34.421,-64.617C-38.645,-61.539 -43.493,-57.785 -46.415,-53.664C-64.251,-34.786 -71.03,-3.651 -59.454,19.869C-49.855,24.355 -40.887,30.404 -30.248,32.386C-8.083,22.53 0.573,-1.147 5.215,-22.373C6.992,-35.626 5.594,-34.775 13.63,-39.232L7.822,-36.976C7.202,-38.031 6.949,-39.16 6.878,-40.347C6.71,-43.151 6.597,-45.795 6.978,-49.493C8.595,-51.369 10.014,-52.152 11.996,-53.143" style="fill:#231f20;fill-rule:nonzero;"/>
                </g>
                <g transform="matrix(1,0,0,1,839.844,274.212)">
                    <path d="M0,-95.958C-19.14,-86.988 -33.638,-66.231 -32.334,-44.849C-27.64,-45.736 -23.258,-47.353 -18.252,-47.457L-29.204,-35.984C-28.368,-30.873 -23.571,-27.326 -19.296,-25.032C-11.629,-23.102 -2.397,-23.571 3.65,-28.682C12.727,-35.358 18.36,-44.797 21.904,-53.715C17.368,-32.958 8.659,-9.804 -12.517,0C-22.059,-3.18 -30.924,-8.031 -40.156,-11.994C-50.116,-34.002 -45.579,-62.999 -28.684,-80.313C-20.286,-88.292 -10.952,-94.081 0,-95.958" style="fill:#fff;fill-rule:nonzero;"/>
                </g>
                <g transform="matrix(1,0,0,1,846.102,207.876)">
                    <path d="M0,-21.8C-0.885,-15.803 -6.727,-11.839 -10.951,-7.197C-16.635,-2.66 -22.061,2.503 -28.683,4.797C-31.655,0.678 -29.777,-3.338 -28.683,-7.719C-23.625,-15.228 -15.905,-23 -7.823,-26.494C-4.536,-26.597 -1.616,-24.72 0,-21.8" style="fill:#fff;fill-rule:nonzero;"/>
                </g>
                <g transform="matrix(1,0,0,1,890.953,203.286)">
                    <path d="M0,30.248L-0.521,30.248C10.326,23.155 16.637,12.413 16.689,0C18.566,13.143 11.109,24.303 0,30.248" style="fill:#231f20;fill-rule:nonzero;"/>
                </g>
                <g transform="matrix(1,0,0,1,973.875,261.176)">
                    <path d="M0,-24.512C4.799,-16.376 4.068,-4.746 2.605,4.693C2.66,-6.937 3.703,-18.984 -4.692,-27.119C-8.918,-28.111 -12.935,-25.607 -16.689,-23.991C-25.816,-17.785 -35.045,-11.735 -45.373,-8.345L-45.373,-9.909L-35.463,-22.948C-36.611,-19.245 -38.957,-16.011 -40.678,-12.517L-40.158,-11.996C-29.102,-16.637 -20.079,-26.233 -8.344,-29.205C-4.954,-29.154 -1.617,-27.797 0,-24.512" style="fill:#231f20;fill-rule:nonzero;"/>
                </g>
                <g transform="matrix(1,0,0,1,953.014,335.23)">
                    <path d="M0,-86.572C2.774,-87.1 5.289,-85.919 7.605,-85.915C8.032,-85.914 10.613,-89.074 11.027,-89.171C11.183,-88.7 8.658,-85.32 8.345,-85.007C11.615,-83.618 11.46,-78.958 13.765,-78.234C14.143,-78.115 17.948,-80.502 18.484,-80.627C18.043,-80.252 14.355,-77.461 14.117,-77.055C12.462,-74.243 15.084,-70.739 14.082,-67.276C14.918,-65.607 16.898,-67.922 17.888,-68.236L14.082,-64.668C10.587,-41.095 1.043,-20.08 -14.602,-1.565C-18.356,1.617 -21.902,5.321 -26.599,6.258C-34.211,3.443 -40.521,-2.399 -47.458,-6.778C-37.185,-31.446 -29.309,-57.524 -11.995,-78.749L-12.517,-78.749L-12.517,-82.922L-11.995,-82.922C-12.1,-81.826 -11.891,-80.94 -10.95,-80.313C-8.668,-81.565 -8.24,-83.859 -5.735,-84.486C-4.172,-85.371 -2.618,-86.071 -1.043,-87.093L-1.565,-87.093L-1.565,-92.83L-1.043,-92.83C-0.678,-90.744 -1.929,-88.032 0,-86.572" style="fill:#231f20;fill-rule:nonzero;"/>
                </g>
                <g transform="matrix(-0.586987,-0.809596,-0.809596,0.586987,933.075,259.472)">
                    <path d="M-10.697,-20.738C-14.293,-13.169 -15.529,-2.613 -15.298,5.789C-14.103,6.016 -11.973,6.467 -10.697,5.029C-5.78,0.883 -3.787,-5.521 -3.847,-12.177C-5.184,-15.265 -5.886,-20.942 -10.697,-20.738" style="fill:#fff;fill-rule:nonzero;"/>
                </g>
                <g transform="matrix(1,0,0,1,693.82,280.159)">
                    <path d="M0,2.398C0.624,5.371 3.441,7.405 3.129,10.743C1.251,7.666 -1.878,3.285 -5.737,2.919C-9.022,2.816 -11.265,6.362 -13.561,7.613C-13.717,8.761 -13.404,5.632 -12.517,5.005C-10.014,1.825 -5.267,2.451 -2.086,2.398C-3.338,-1.148 -6.26,-1.878 -8.867,-4.382C-12.046,-7.093 -17.522,-5.842 -21.384,-5.425C-13.247,-8.345 -4.434,-5.633 0,2.398" style="fill:#231f20;fill-rule:nonzero;"/>
                </g>
                <g transform="matrix(1,0,0,1,932.152,339.924)">
                    <path d="M0,-48.501C-2.554,-41.668 -14.392,-37.34 -9.387,-28.683C-8.553,-25.762 -6.361,-23.05 -3.65,-21.382C1.93,-19.139 8.45,-20.755 13.039,-23.99C17.107,-27.798 20.549,-31.76 23.469,-35.984C16.638,-22.789 9.18,-7.092 -5.737,0C-12.516,-3.337 -18.877,-7.665 -25.032,-12.516C-19.867,-24.147 -15.384,-36.453 -9.907,-47.458C-10.534,-46.623 -10.377,-45.423 -10.43,-44.329L-9.907,-43.807C-6.622,-45.372 -3.493,-47.51 0,-48.501" style="fill:#fff;fill-rule:nonzero;"/>
                </g>
                <g transform="matrix(1,0,0,1,0,-184.895)">
                    <rect x="697.47" y="476.056" width="0.782" height="0.783" style="fill:#231f20;"/>
                </g>
                <g transform="matrix(1,0,0,1,890.953,338.932)">
                    <path d="M0,-20.912C4.173,-19.972 8.5,-17.262 10.43,-13.088C12.568,-7.299 11.369,-0.363 7.301,4.123C3.34,7.46 -1.875,9.388 -7.302,7.771C-12.566,6.416 -19.348,2.974 -20.34,-3.179C-21.226,-7.926 -20.442,-13.349 -17.731,-17.262C-10.278,-25.309 -4.69,-19.706 -4.811,-25.355C-4.832,-26.313 -1.564,-30.3 -1.564,-30.3C-1.355,-27.065 -7.728,-22.234 -0.792,-21.818" style="fill:#231f20;fill-rule:nonzero;"/>
                </g>
                <g transform="matrix(1,0,0,1,0,-107.711)">
                    <rect x="717.809" y="437.464" width="0.783" height="0.783" style="fill:#231f20;"/>
                </g>
                <g transform="matrix(1,0,0,1,0,-106.665)">
                    <rect x="716.767" y="436.941" width="0.781" height="0.783" style="fill:#231f20;"/>
                </g>
                <g transform="matrix(1,0,0,1,811.16,364.955)">
                    <path d="M0,-22.422C16.585,-19.19 33.222,-15.016 44.851,-1.041C46.052,0.836 46.364,3.08 46.938,5.217C36.768,-14.442 14.916,-19.19 -5.215,-21.38C-1.092,-23.675 3.966,-26.125 8.865,-27.639C6.155,-25.342 2.399,-24.404 0,-22.422" style="fill:#231f20;fill-rule:nonzero;"/>
                </g>
                <g transform="matrix(1,0,0,1,204.115,358.021)">
                    <path d="M0,3.285L0,3.807C-7.458,3.703 -13.612,8.343 -21.382,5.893C-27.588,3.598 -36.715,2.817 -38.592,-4.537L-38.071,-5.058C-26.441,0.313 -13.298,1.929 0,3.285" style="fill:#f2c4b1;fill-rule:nonzero;"/>
                </g>
                <g transform="matrix(1,0,0,1,827.85,376.797)">
                    <path d="M0,2.243L-6.258,0.154C-3.858,0 -0.99,0.05 0,2.243" style="fill:#231f20;fill-rule:nonzero;"/>
                </g>
                <g transform="matrix(1,0,0,1,536.321,515.154)">
                    <path d="M0,-24.51C-1.252,-20.756 -1.042,-18.358 -1.042,-14.08C-1.009,-11.99 -0.593,-10.082 -0.522,-9.385C-11.058,-7.196 -20.442,-2.242 -30.77,0.521C-34.42,-1.721 -30.562,-4.746 -30.248,-7.301C-22.79,-17.002 -12.725,-24.666 -0.522,-25.031L0,-24.51Z" style="fill:#fff;fill-rule:nonzero;"/>
                </g>
                <g transform="matrix(1,0,0,1,641.669,657.373)">
                    <path d="M0,-26.963C-2.087,-19.506 -1.044,-10.746 3.128,-4.535C-0.053,-2.295 -4.539,0 -8.346,-2.451C-10.587,-3.807 -10.535,-6.99 -10.433,-9.752C-10.433,-16.793 -4.956,-22.006 -1.044,-26.963L0,-26.963Z" style="fill:#f2c4b1;fill-rule:nonzero;"/>
                </g>
                <g transform="matrix(-0.999135,-0.0415841,-0.0415841,0.999135,667.434,710.348)">
                    <path d="M7.817,-19.655C2.408,-13.93 -2.943,-8.255 -3.429,-0.288C1.112,-0.31 5.659,-2.938 7.817,-7.127C10.477,-10.879 7.734,-15.169 8.858,-19.612L7.817,-19.655Z" style="fill:#f2c4b1;fill-rule:nonzero;"/>
                </g>
                <g transform="matrix(-0.791578,0.611068,0.611068,0.791578,693.952,737.672)">
                    <path d="M6.916,-20.277C8.438,-17.366 10.343,-14.556 10.589,-11.251C11.425,-6.286 10.061,-1.309 6.916,2.359C5.41,0.383 4.364,-1.124 3.653,-2.265C7.622,-7.064 6.774,-14.762 6.916,-20.277" style="fill:#f2c4b1;fill-rule:nonzero;"/>
                </g>
                <g transform="matrix(1,0,0,1,701.642,744.112)">
                    <path d="M0,-7.311C-2.554,-5.016 -6.466,-6.008 -9.907,-5.747C-10.618,-5.764 -11.303,-5.852 -11.966,-6C-11.831,-4.663 -11.737,-2.831 -11.723,-0.346C-10.625,-0.116 -9.492,0 -8.344,-0.012C-5.266,-0.116 -2.45,-0.791 -0.521,-3.663C-0.363,-4.86 1.41,-6.112 0,-7.311" style="fill:#fee7db;fill-rule:nonzero;"/>
                </g>
                <g transform="matrix(1,0,0,1,826.008,736.117)">
                    <path d="M0,-297.473C-1.7,-296.196 -8.723,-278.543 -10.426,-268.334C-12.127,-258.129 -16.804,-240.69 -29.563,-211.774C-42.32,-182.854 -46.147,-176.901 -58.481,-158.188C-70.814,-139.475 -81.871,-126.715 -81.871,-126.715C-81.871,-126.715 -85.7,-119.912 -94.63,-102.053C-103.56,-84.19 -120.572,-68.03 -120.572,-68.03C-121.423,-45.489 -117.376,-51.66 -117.376,-51.66C-117.376,-51.66 -119.502,-54.637 -122.904,-53.789C-126.308,-52.94 -133.753,-33.157 -134.182,-25.5C-134.607,-17.846 -122.904,-23.166 -128.435,-17.641C-131.609,-14.463 -135.906,-4.235 -138.989,-4.618C-138.422,-3.131 -137.784,-1.828 -137.118,-0.703C-135.086,0.246 -132.873,0.781 -130.46,0.683C-127.437,-0.778 -123.629,-0.254 -121.595,-4.01C-116.745,-14.391 -120.446,-28.262 -116.38,-38.952C-115.127,-34.051 -118.153,-28.522 -116.38,-23.83C-113.563,-26.227 -111.842,-29.043 -109.601,-31.651C-103.498,-41.299 -99.795,-53.034 -100.735,-64.508C-101.464,-64.614 -102.245,-63.256 -102.821,-64.508C-75.648,-92.879 -56.248,-124.43 -41.281,-157.858C-17.657,-191.131 0.39,-226.752 8.784,-266.332C9.962,-273.924 9.253,-281.285 7.024,-288.164C4.973,-293.442 1.04,-298.254 0,-297.473" style="fill:#fee7db;fill-rule:nonzero;"/>
                </g>
                <g transform="matrix(1,0,0,1,791.561,546.694)">
                    <path d="M0,-63.176C-12.334,-46.59 -45.931,-12.143 -69.321,2.744C-85.808,13.232 -102.291,22.664 -117.437,29.703C-112.258,30.42 -107.017,30.869 -101.751,31.045C-77.082,19.049 -54.031,3.193 -31.868,-14.85C-11.007,-36.965 24.405,-56.467 19.762,-90.992L20.162,-91.391C19.974,-91.85 19.775,-92.235 19.563,-92.52C18.285,-94.221 12.334,-79.76 0,-63.176" style="fill:#fee7db;fill-rule:nonzero;"/>
                </g>
                <g transform="matrix(1,0,0,1,695.93,542.303)">
                    <path d="M0,167.9C0,167.9 -9.194,162.361 -5.793,143.648C-2.391,124.935 5.691,116.855 11.644,106.648C17.6,96.441 21.851,84.533 21.851,84.533C21.851,84.533 24.829,73.476 42.266,50.511C58.327,29.353 75.942,-11.295 83.849,-25.211C54.372,3.423 19.843,26.818 -15.508,42.738C-28.805,44.716 -30.212,59.894 -34.28,69.855L-35.325,68.812C-42.833,73.296 -50.344,80.076 -52.534,88.63C-55.403,99.425 -50.447,108.341 -44.713,116.269C-45.232,126.593 -42.627,135.617 -36.89,143.39C-21.608,153.765 -24.112,172.539 -15.508,186.154C-13.121,188.953 -10.318,191.576 -7.04,193.111C-12.927,176.697 -1.429,179.961 0,167.9" style="fill:#f2c4b1;fill-rule:nonzero;"/>
                </g>
                <g transform="matrix(1,0,0,1,690.759,395.094)">
                    <path d="M0,13.152C11.907,36.115 40.838,62.277 65.079,67.379C89.318,72.48 108.882,57.425 128.02,54.023C132.532,53.222 137.798,52.548 140.222,47.582C136.956,40.381 131.994,33.834 125.781,28.273C120.357,20.92 115.56,30.933 110.135,31.404L109.614,30.882C113.16,26.814 118.897,24.466 122.651,20.972C86.094,9.343 50.317,-10.894 24.605,-42.131C23.407,-38.48 22.938,-34.516 20.956,-31.18C18.244,-33.631 21.843,-37.23 19.911,-39.525C-1.09,-52.469 -27.687,-59.328 -53.487,-54.194C-9.824,-45.22 -11.785,-9.578 0,13.152" style="fill:#f2c4b1;fill-rule:nonzero;"/>
                </g>
                <g transform="matrix(0.550801,-0.834636,-0.834636,-0.550801,202.272,332.878)">
                    <path d="M-20.057,-15.523C-19.217,-12.069 -10.927,-3.146 -11.774,-0.461C-13.631,5.446 -15.417,2.74 -20.057,19.04C-22.518,27.683 -28.525,33.011 -32.92,34.576C-38.413,17.766 -28.219,0.076 -20.057,-15.523" style="fill:#f2c4b1;fill-rule:nonzero;"/>
                </g>
                <g transform="matrix(1,0,0,1,633.782,445.139)">
                    <path d="M0,3.3C13.609,-3.505 24.035,-14.78 24.035,-22.862C24.035,-30.94 15.311,-51.573 6.806,-51.573C-1.7,-51.573 -25.091,-49.444 -61.663,-48.598C-98.238,-47.747 -151.823,-49.02 -175.214,-51.147C-198.604,-53.274 -204.132,-54.55 -204.983,-56.251C-204.983,-56.251 -239.431,-52.848 -272.177,-55.401C-304.924,-57.952 -328.74,-66.458 -340.222,-67.309C-340.222,-67.309 -355.531,-56.677 -368.29,-50.721C-381.048,-44.77 -405.289,-47.319 -416.346,-49.022C-427.403,-50.721 -427.829,-53.274 -435.483,-49.022C-440.311,-46.341 -449.699,-31.634 -458.005,-30.333C-457.781,-28.657 -457.333,-27.007 -456.624,-25.423C-450.157,-17.182 -438.214,-21.409 -428.983,-21.772C-410.417,-26.622 -399.361,-13.532 -383.089,-12.907C-365.462,-15.669 -349.765,-23.18 -334.067,-30.638C-334.954,-31.315 -336.57,-31.264 -336.675,-32.723L-336.153,-33.243C-307.73,-25.79 -277.69,-22.19 -246.974,-20.208L-193.779,-19.684L-128.067,-17.598L-27.415,-16.557L-13.333,-15.513C-15.264,-15.147 -16.827,-14.055 -19.07,-14.47C-29.344,-11.968 -43.165,-18.016 -50.884,-9.255C-60.262,10.726 -61.919,38.3 -54.398,60.068C-43.38,70.04 -47.597,70.609 -39.551,59.448C-26.365,41.163 -13.608,10.103 0,3.3" style="fill:#f2c4b1;fill-rule:nonzero;"/>
                </g>
                <g transform="matrix(1,0,0,1,162.149,318.585)">
                    <path d="M0,16.305C11.627,18.016 33.427,12.197 50.366,3.598C49.358,3.951 48.35,4.301 47.343,4.65C28.464,8.144 11.15,-1.711 -7.417,1C-10.05,3.001 -11.755,6.14 -12.099,9.534C-9.478,15.395 -5.314,15.524 0,16.305" style="fill:#fee7db;fill-rule:nonzero;"/>
                </g>
                <g transform="matrix(1,0,0,1,826.008,589.134)">
                    <path d="M0,-140.49C1.04,-141.271 3.675,-141.888 7.024,-141.181C6.441,-142.976 5.755,-144.736 4.973,-146.459C1.364,-146.861 -2.717,-146.818 -7.229,-146.017C-26.367,-142.615 -45.931,-131.56 -70.17,-136.662C-94.411,-141.763 -103.342,-157.926 -115.249,-180.888C-127.034,-203.619 -145.073,-239.261 -188.736,-248.235C-189.651,-248.052 -190.566,-247.859 -191.478,-247.646L-192,-248.168L-188.35,-250.775C-226.524,-260.682 -268.35,-263.552 -308.82,-266.422L-360.972,-267.464C-396.957,-272.261 -432.732,-277.581 -471.011,-276.851C-485.562,-276.956 -499.851,-274.659 -513.776,-274.765L-512.212,-276.329C-519.617,-279.98 -528.587,-282.064 -537.766,-282.587C-564.843,-283.238 -589.471,-275.289 -613.493,-266.952C-630.432,-258.353 -652.231,-262.534 -663.858,-264.245C-669.172,-265.026 -673.104,-263.391 -675.957,-261.016C-676.125,-259.365 -675.975,-257.658 -675.446,-255.992C-674.182,-252.865 -672.587,-250.166 -670.727,-247.825C-666.141,-245.655 -659.244,-242.711 -650.674,-240.003C-634.514,-234.899 -635.789,-237.879 -629.836,-236.176C-627.128,-235.404 -624.247,-233.57 -621.827,-230.967C-621.795,-230.963 -621.763,-230.959 -621.731,-230.957C-615.159,-224.803 -606.554,-217.032 -608.692,-206.967C-612.447,-198.621 -622.617,-201.23 -630.596,-200.709C-635.916,-198.832 -641.026,-196.484 -645.199,-191.842C-648.813,-187.078 -651.066,-180.533 -650.231,-174.328C-641.925,-175.629 -632.536,-180.336 -627.708,-183.017C-620.054,-187.269 -619.629,-184.717 -608.572,-183.017C-597.514,-181.314 -573.273,-178.765 -560.515,-184.717C-547.757,-190.672 -532.447,-201.304 -532.447,-201.304C-520.965,-200.453 -497.149,-191.947 -464.403,-189.396C-431.656,-186.844 -397.208,-190.246 -397.208,-190.246C-396.358,-188.545 -390.83,-187.269 -367.44,-185.142C-344.049,-183.015 -290.464,-181.742 -253.889,-182.594C-217.316,-183.439 -193.926,-185.568 -185.42,-185.568C-176.915,-185.568 -178.19,-174.935 -178.19,-166.857C-178.19,-158.775 -178.616,-157.5 -192.226,-150.695C-205.834,-143.892 -218.591,-132.832 -231.776,-114.547C-239.822,-103.386 -244.221,-93.019 -246.624,-83.927C-245.487,-80.638 -244.148,-77.48 -242.588,-74.502C-224.818,-38.094 -189.993,-18.019 -151.883,-12.738C-136.737,-19.777 -120.254,-29.209 -103.768,-39.697C-80.377,-54.584 -46.78,-89.031 -34.446,-105.617C-22.112,-122.201 -16.161,-136.662 -14.884,-134.961C-14.671,-134.676 -14.473,-134.291 -14.284,-133.832L-14.163,-133.953C-9.781,-123.734 -12.806,-111.427 -18.333,-102.662C-26.952,-91.92 -36.304,-81.683 -46.229,-72.043C-54.136,-58.127 -81.751,-17.478 -97.813,3.68C-115.249,26.645 -118.228,37.701 -118.228,37.701C-118.228,37.701 -122.479,49.61 -128.435,59.817C-134.387,70.024 -142.469,78.104 -145.871,96.817C-149.272,115.53 -140.769,121.908 -140.769,121.908C-141.853,131.071 -140.784,137.67 -138.989,142.365C-135.906,142.748 -131.609,142.52 -128.435,139.342C-122.904,133.817 -124.607,129.137 -124.182,121.483C-123.753,113.826 -126.308,104.043 -122.904,103.194C-119.502,102.346 -117.376,105.323 -117.376,105.323C-117.376,105.323 -111.423,101.494 -110.572,78.953C-110.572,78.953 -93.56,62.793 -84.63,44.93C-75.7,27.071 -71.871,20.268 -71.871,20.268C-71.871,20.268 -60.814,7.508 -48.481,-11.205C-36.147,-29.918 -32.32,-35.871 -19.563,-64.791C-6.804,-93.707 -2.127,-111.146 -0.426,-121.351C1.277,-131.559 -1.697,-139.215 0,-140.49" style="fill:#fddaca;fill-rule:nonzero;"/>
                </g>
                <g transform="matrix(1,0,0,1,290.584,348.704)">
                    <path d="M0,-15.308C0,-15.308 24.666,-18.71 52.734,-17.858C80.802,-17.009 124.606,-10.629 139.917,-2.975C139.917,-2.975 179.041,-5.953 210.087,-3.826C241.131,-1.7 292.59,0.427 325.762,8.082C358.933,15.736 364.887,17.014 370.416,19.564C375.944,22.115 376.795,19.138 372.967,14.462C369.14,9.783 358.083,-1.274 323.636,-8.931C289.189,-16.585 245.81,-25.939 151.398,-19.136C151.398,-19.136 103.343,-37.423 12.758,-28.067C12.758,-28.067 -24.242,-36.148 -46.781,-27.642C-69.321,-19.136 -62.941,-18.285 -54.01,-19.561C-45.081,-20.838 -15.735,-26.79 0,-15.308" style="fill:#fee7db;fill-rule:nonzero;"/>
                </g>
                <g transform="matrix(1,0,0,1,891.349,319.707)">
                    <path d="M0,23.615C1.593,21.669 3.361,16.889 1.239,13.881C-0.884,10.873 -6.192,7.158 -3.185,3.09C-1.928,1.387 -0.112,0.616 1.844,0.488C0.473,-0.276 -0.981,-0.842 -2.481,-1.167C-7.331,-2.316 -12.808,-1.846 -16.04,2.484C-16.835,3.459 -17.514,4.56 -18.066,5.733C-17.4,5.524 -16.715,5.612 -16.103,6.275C-13.979,8.574 -13.271,10.166 -13.095,12.998C-12.918,15.829 -10.97,19.367 -9.555,21.845C-8.622,23.48 -7.146,24.5 -5.641,25.817C-5.086,25.877 -4.532,25.916 -3.976,25.931C-2.428,25.341 -0.757,24.536 0,23.615" style="fill:#fddaca;fill-rule:nonzero;"/>
                </g>
                <g transform="matrix(1,0,0,1,893.192,345.756)">
                    <path d="M0,-25.561C-1.956,-25.433 -3.771,-24.662 -5.028,-22.958C-8.036,-18.89 -2.728,-15.175 -0.604,-12.167C1.518,-9.159 -0.251,-4.38 -1.844,-2.434C-2.601,-1.512 -4.271,-0.707 -5.819,-0.117C-1.828,0 2.08,-1.062 4.54,-4.791C7.669,-8.649 8.608,-14.701 6.626,-19.392C4.889,-21.985 2.59,-24.123 0,-25.561" style="fill:#fee7db;fill-rule:nonzero;"/>
                </g>
                <g transform="matrix(1,0,0,1,881.794,329.203)">
                    <path d="M0,12.35C-1.415,9.872 -3.363,6.333 -3.54,3.502C-3.717,0.671 -4.425,-0.921 -6.548,-3.221C-7.16,-3.883 -7.846,-3.972 -8.512,-3.763C-10.315,0.058 -10.731,4.679 -9.094,8.633C-6.068,12.179 -2.626,14.579 1.336,15.934C2.182,16.101 3.044,16.234 3.914,16.322C2.408,15.004 0.933,13.984 0,12.35" style="fill:#f2c4b1;fill-rule:nonzero;"/>
                </g>
                <g transform="matrix(1,0,0,1,864.539,335.781)">
                    <path d="M0,51.26C-4.85,58.895 -21.16,69.539 -28.44,62.26C-35.721,54.981 -22.522,45.916 -44,40.26C-56.117,37.07 -60.5,53.76 -71,43.26C-81.5,32.76 -79.883,11.872 -67,-0.74C-57.353,-10.184 -38,-18.74 -17,2.26C5.055,24.315 8.478,37.916 0,51.26M-4.898,-7.364C-16.522,-24.084 -42.022,-44.248 -69.522,-16.748C-72.698,-13.572 -77.236,-10.912 -77.814,-6.76C-83.149,31.537 -127.295,5.525 -127.378,-30.499C-127.391,-35.915 -132.665,-59.033 -134.141,-63.678C-136.402,-70.792 -139.817,-86.606 -152,-85.221C-136.214,-58.782 -140.722,-28.933 -139.993,-13.665C-139.623,-5.911 -143.26,6.735 -148.228,7.068C-151.066,7.258 -154.585,3.429 -154.919,6.559C-156.409,20.489 -130.945,63.947 -80.162,77.869C-49.921,86.159 33.387,107.828 65.335,52.618C69.309,45.75 60.011,54.577 46.623,59.568C33.131,64.598 18.271,59.748 12.25,49.846C10.134,46.366 17.078,35.602 17.078,32.036C17.078,16.036 0.192,-0.041 -4.898,-7.364" style="fill:#211f20;fill-rule:nonzero;"/>
                </g>
                <g transform="matrix(0.463915,0.88588,0.88588,-0.463915,797.642,309.004)">
                    <path d="M13.112,-7.94C15.91,-8.317 11.981,-2.985 11.585,8.162C11.188,19.305 15.357,21.682 13.112,22.382C10.867,23.083 7.222,15.411 7.415,6.995C7.609,-1.418 10.069,-7.532 13.112,-7.94" style="fill:#feffff;fill-rule:nonzero;"/>
                </g>
                <g transform="matrix(1,0,0,1,810.732,381.801)">
                    <path d="M0,3.095C3.672,0.397 7.392,1.072 6.246,-1.186C4.809,-4.016 -3.7,1.47 -5.375,3.521C-7.05,5.572 -5.466,7.111 0,3.095" style="fill:#feffff;fill-rule:nonzero;"/>
                </g>
                <g transform="matrix(1,0,0,1,499.293,515.676)">
                    <path d="M0,-33.912L-0.521,-33.912L-51.63,-14.615L-66.754,-7.314C-69.386,-5.187 -71.782,-2.91 -73.923,-0.496C-59.584,0 -17.67,-19.188 -4.934,-26.82C-3.449,-29.332 -1.808,-31.713 0,-33.912" style="fill:#fee7db;fill-rule:nonzero;"/>
                </g>
                <g transform="matrix(1,0,0,1,491.47,530.705)">
                    <path d="M0,26.68C-9.582,8.194 -9.063,-17.256 0.125,-36.664C-16.438,-34.675 -63.524,-11.377 -76.246,2.182C-78.248,8.641 -78.808,15.631 -77.706,23.03C-73.741,40.813 -58.201,59.221 -39.634,62.664C-20.391,63.344 -2.451,57.813 16.167,55.364L17.209,54.319C9.91,46.182 4.173,36.535 0,26.68" style="fill:#f2c4b1;fill-rule:nonzero;"/>
                </g>
                <g transform="matrix(-0.486209,-0.873842,-0.873842,0.486209,416.316,486.999)">
                    <path d="M-39.567,-67.295C-37.699,-55.369 -32.269,-20.158 -29.027,5.789C-31.367,12.45 -34.883,18.361 -39.567,23.264C-40.044,8.226 -41.789,-45.806 -42.755,-62.358C-41.604,-63.966 -40.546,-65.616 -39.567,-67.295" style="fill:#fddaca;fill-rule:nonzero;"/>
                </g>
                <g transform="matrix(1,0,0,1,571.443,630.374)">
                    <path d="M0,-16.756L-23.25,-10.795L-50.877,-0.84C-47.624,-0.152 -44.238,0 -40.774,-0.526C-24.657,-4.961 -8.336,-10.178 6.685,-16.174C4.438,-16.32 2.211,-16.52 0,-16.756" style="fill:#fee7db;fill-rule:nonzero;"/>
                </g>
                <g transform="matrix(1,0,0,1,512.247,624.364)">
                    <path d="M0,-35.934C-4.329,-35.254 -9.022,-35.307 -13.038,-33.844L-13.038,-31.762C-13.873,-25.971 -22.062,-20.653 -17.21,-15.073C-13.745,-9.239 -9.198,-3.957 -3.26,0L14.802,-1.802L43.407,-13.448C27.227,-17.25 12.823,-24.041 0,-35.934" style="fill:#f2c4b1;fill-rule:nonzero;"/>
                </g>
                <g transform="matrix(-0.960904,0.276882,0.276882,0.960904,528.39,633.412)">
                    <path d="M-32.427,-14.067L16.138,-14.067C13.283,-10.687 9.899,-7.798 6.032,-5.744L-47.263,-6.951C-42.11,-9.057 -37.151,-11.416 -32.427,-14.067" style="fill:#fddaca;fill-rule:nonzero;"/>
                </g>
            </g>
        </g>
        <g transform="matrix(4.16667,0,0,4.16667,0,0)">
            <g id="boots">
                <g transform="matrix(1,0,0,1,374.65,567.788)">
                    <path d="M0,-47.938L-0.521,-48.459C-16.01,-42.985 -30.873,-35.893 -45.894,-29.165C-57.992,-22.801 -71.292,-19.465 -81.878,-9.346C-84.69,-6.428 -87.068,-3.086 -88.946,0.521C-62.572,-15.596 -20.105,-33.797 -2.575,-39.536C-1.885,-42.366 -1.029,-45.17 0,-47.938" style="fill:#fac1b5;fill-rule:nonzero;"/>
                </g>
                <g transform="matrix(1,0,0,1,370.119,585.445)">
                    <path d="M0,-44.748C0.315,-48.916 0.952,-53.082 1.957,-57.193C-15.574,-51.455 -58.04,-33.254 -84.415,-17.137C-89.118,-8.107 -90.684,2.578 -88.091,12.445C-85.742,4.76 -81.721,-4.398 -74.932,-11.187C-74.932,-11.187 -51.448,-24.494 0,-44.748" style="fill:#ed1846;fill-rule:nonzero;"/>
                </g>
                <g transform="matrix(1,0,0,1,393.425,570.947)">
                    <path d="M0,33.387C-16.246,16.821 -25.075,-6.812 -23.307,-30.25C-74.755,-9.996 -98.239,3.311 -98.239,3.311C-105.028,10.1 -109.049,19.258 -111.397,26.944C-110.915,28.776 -110.295,30.584 -109.519,32.346C-102.166,47.676 -88.189,62.489 -70.404,63.637C-37.08,60.508 -3.442,58.16 27.641,49.555C17.158,47.209 8.031,40.532 0,33.387" style="fill:#a00131;fill-rule:nonzero;"/>
                </g>
                <g transform="matrix(1,0,0,1,412.818,493.242)">
                    <path d="M0,37.451C1.234,33.828 2.938,30.482 5.118,27.648C12.859,13.199 26.543,8.297 39.981,3.303C33.902,-0.522 26.303,-2.807 17.701,-2.535C-1.536,-1.924 -8.817,3.137 -32.758,21.258C-35.951,26.847 -38.127,33.379 -39.31,40.258C-20.612,27.547 -6.878,32.789 0,37.451" style="fill:#ed1846;fill-rule:nonzero;"/>
                </g>
                <g transform="matrix(1,0,0,1,495.643,553.75)">
                    <path d="M0,37.025C-12.882,38.955 -25.398,41.611 -38.592,42.759C-56.793,42.289 -73.117,27.269 -80.835,11.47C-85.949,1.795 -86.609,-11.944 -82.825,-23.057C-89.703,-27.719 -103.437,-32.961 -122.134,-20.25C-124.603,-5.895 -122.754,9.964 -116.82,21.9C-111.136,43.855 -89.44,61.9 -67.798,66.23C-43.234,69.986 -15.75,67.064 -2.086,44.326C-1.409,41.873 0.887,39.474 0,37.025" style="fill:#a00131;fill-rule:nonzero;"/>
                </g>
                <g transform="matrix(1,0,0,1,452.8,495.559)">
                    <path d="M0,0.986C4.849,-0.819 9.666,-2.633 14.16,-4.914L14.16,-5.436C11.708,-7.418 8.58,-7.891 5.815,-9.086C-23.546,-17.955 -54.054,-7.473 -71.891,17.507C-72.183,17.978 -72.463,18.461 -72.739,18.941C-48.798,0.82 -41.517,-4.241 -22.28,-4.852C-13.679,-5.123 -6.079,-2.838 0,0.986" style="fill:#fac1b5;fill-rule:nonzero;"/>
                </g>
                <g transform="matrix(1,0,0,1,547.598,658.208)">
                    <path d="M0,-30.689L-0.847,-30.421C-8.251,-28.23 -14.771,-24.058 -23.793,-25.726C-29.165,-26.134 -34.189,-27.962 -38.715,-30.746C-40.192,-26.486 -43.054,-21.793 -48.297,-17.324C-55.144,-11.496 -68.94,-10.683 -75.128,-10.628C-66.323,-4.548 -55.912,-1.16 -44.93,0.057C-36.237,-1.339 -24.717,-4.947 -14.006,-10.998C-3.787,-16.779 -0.835,-25.513 0,-30.689" style="fill:#ed1846;fill-rule:nonzero;"/>
                </g>
                <g transform="matrix(1,0,0,1,508.883,626.836)">
                    <path d="M0,0.627C-7.647,-4.072 -13.872,-11.492 -17.934,-19.385C-19.863,-20.117 -19.759,-18.238 -20.541,-17.301C-29.929,-9.635 -41.193,-4.365 -53.918,-3.74C-55.744,-1.602 -52.875,1.109 -52.354,3.561C-48.1,10.775 -42.659,16.434 -36.414,20.744C-30.225,20.69 -16.429,19.877 -9.583,14.049C-4.339,9.58 -1.478,4.887 0,0.627" style="fill:#a00131;fill-rule:nonzero;"/>
                </g>
                <g transform="matrix(1,0,0,1,574.393,658.942)">
                    <path d="M0,-40.018L-26.795,-31.422C-27.63,-26.247 -30.582,-17.512 -40.801,-11.731C-51.512,-5.68 -63.032,-2.073 -71.725,-0.676C-66.338,-0.079 -60.817,0 -55.281,-0.383C-32.126,-2.471 -6.623,-15.506 0.521,-39.498L0,-40.018Z" style="fill:#fac1b5;fill-rule:nonzero;"/>
                </g>
                <g transform="matrix(1,0,0,1,450.793,661.035)">
                    <path d="M0,-36.896C-9.022,-36.636 -17.68,-37.158 -26.076,-38.459C-42.087,-34.55 -58.463,-31.419 -75.099,-29.074C-78.905,-28.394 -83.079,-28.447 -86.572,-26.988C-88.106,-15.019 -81.054,-5.726 -72.805,1.563C-59.342,-0.552 -13.912,-8.189 11.771,-18.71C6.488,-23.896 2.267,-30.031 0,-36.896" style="fill:#a00131;fill-rule:nonzero;"/>
                </g>
                <g transform="matrix(1,0,0,1,462.563,668.324)">
                    <path d="M0,-26C-25.683,-15.479 -71.112,-7.842 -84.576,-5.727C-84.126,-5.328 -83.674,-4.937 -83.219,-4.553C-80.984,-2.348 -78.51,-0.904 -75.877,0C-22.268,-4.727 10.119,-13.428 15.341,-14.906C9.817,-17.82 4.519,-21.564 0,-26" style="fill:#ed1846;fill-rule:nonzero;"/>
                </g>
                <g transform="matrix(1,0,0,1,477.905,672.029)">
                    <path d="M0,-18.611C-5.223,-17.132 -37.609,-8.431 -91.219,-3.705C-80.457,0 -66.983,-5.336 -55.795,-5.127L9.394,-12.949L10.958,-13.99C7.313,-15.152 3.609,-16.707 0,-18.611" style="fill:#fac1b5;fill-rule:nonzero;"/>
                </g>
            </g>
        </g>
        <g transform="matrix(4.16667,0,0,4.16667,0,0)">
            <g id="belt">
                <g transform="matrix(1,0,0,1,579.085,486.489)">
                    <path d="M0,-47.477C-18.931,-38.559 -36.349,-22.547 -40.678,-1.581L-40.156,-1.061C-40.32,-0.706 -40.469,-0.354 -40.609,0C-33.37,-4.881 -19.059,-14.159 -6.595,-19.987C-5.798,-29.629 -3.167,-38.809 0,-47.477" style="fill:#007537;fill-rule:nonzero;"/>
                </g>
                <g transform="matrix(1,0,0,1,638.665,573.81)">
                    <path d="M0,12.881C2.06,13.338 4.021,13.772 5.893,14.186C12.972,11.61 21.382,8.137 31.452,3.524C24.599,2.336 17.915,0.727 11.401,-1.305C4.55,1.483 -5.017,5.168 -13.937,8.736C-9.554,10.395 -4.904,11.791 0,12.881" style="fill:#41ad49;fill-rule:nonzero;"/>
                </g>
                <g transform="matrix(0.394765,0.918782,0.918782,-0.394765,609.51,559.983)">
                    <path d="M11.428,-7.716C11.688,-1.046 12.161,7.351 12.931,17.906C12.436,17.495 11.935,17.087 11.428,16.686C11.201,9.555 10.75,0.245 10.425,-8.365C10.762,-8.15 11.094,-7.936 11.428,-7.716" style="fill:#41ad49;fill-rule:nonzero;"/>
                </g>
                <g transform="matrix(-0.585226,0.81087,0.81087,0.585226,612.046,524.677)">
                    <path d="M22.706,-26.451C32.23,-18.882 38.978,-6.831 41.539,7.675C35.102,11.646 28.275,15.757 22.706,18.891C22.305,-1.218 16.778,-21.3 5.82,-37.922C9.146,-36.527 13.685,-33.615 22.706,-26.451" style="fill:#41ad49;fill-rule:nonzero;"/>
                </g>
                <g transform="matrix(1,0,0,1,638.665,589.589)">
                    <path d="M0,-2.898C-4.904,-3.988 -9.554,-5.384 -13.937,-7.043C-19.771,-4.707 -25.332,-2.421 -29.675,-0.472C-24.525,1.395 -19.239,2.92 -13.832,4.145C-8.708,3.174 -2.296,1.387 5.893,-1.593C4.021,-2.007 2.06,-2.441 0,-2.898" style="fill:#007537;fill-rule:nonzero;"/>
                </g>
                <g transform="matrix(-0.440545,-0.89773,-0.89773,0.440545,591.097,571.238)">
                    <path d="M-7.998,-12.609C-7.375,-5.554 -6.86,1.023 -6.73,5.536C-7.157,5.26 -7.577,4.98 -7.998,4.699C-8.007,0.877 -8.282,-4.8 -9.033,-13.206C-8.687,-13.004 -8.345,-12.806 -7.998,-12.609" style="fill:#007537;fill-rule:nonzero;"/>
                </g>
                <g transform="matrix(1,0,0,1,577.31,527.381)">
                    <path d="M0,0.228C-0.53,-11.28 -0.235,-16.665 0.58,-20.178C-2.161,-27.395 -4,-34.965 -4.769,-42.793C-12.622,-38.409 -29.275,-28.956 -40.085,-21.645C-38.87,-10.491 -34.896,0.255 -30.036,10.199C-22.933,22.513 -13.37,34.142 -2.006,43.021C2.401,41.275 9.337,38.499 16.65,35.47C6.386,24.904 0.563,12.38 0,0.228" style="fill:#007537;fill-rule:nonzero;"/>
                </g>
                <g transform="matrix(1,0,0,1,670.117,596.512)">
                    <path d="M0,-19.178C-10.07,-14.565 -18.48,-11.092 -25.56,-8.516C-33.748,-5.535 -40.16,-3.748 -45.284,-2.778C-43.339,-2.336 -41.377,-1.93 -39.4,-1.565L-38.881,-2.086C-37.105,0 -33.716,-1.824 -31.579,-0.522C-31.005,-1.772 -30.223,-0.418 -29.492,-0.522C-23.465,-1.862 -17.506,-3.528 -11.671,-5.477C-2.059,-8.69 7.212,-12.666 15.88,-17.211C10.49,-17.621 5.197,-18.282 0,-19.178" style="fill:#fff;fill-rule:nonzero;"/>
                </g>
                <g transform="matrix(1,0,0,1,572.49,505.736)">
                    <path d="M0,-39.234C-12.464,-33.406 -26.775,-24.129 -34.015,-19.248C-35.792,-14.783 -35.744,-10.49 -35.647,-5.707C-35.609,-3.793 -35.473,-1.89 -35.266,0C-24.456,-7.31 -7.803,-16.763 0.051,-21.148C-0.04,-22.082 -0.124,-23.015 -0.185,-23.961L-0.061,-24.414C-0.734,-29.441 -0.396,-34.429 0,-39.234" style="fill:#fff;fill-rule:nonzero;"/>
                </g>
                <g transform="matrix(1,0,0,1,646.884,582.433)">
                    <path d="M0,-10.955C-5.396,-12.756 -10.688,-15.002 -15.817,-17.639C-25.818,-14.18 -33.72,-11.299 -39.951,-8.904C-47.829,-5.875 -53.046,-3.621 -56.481,-1.945C-50.522,1.494 -44.316,4.354 -37.894,6.684C-33.551,4.734 -27.99,2.449 -22.155,0.113C-13.235,-3.455 -3.669,-7.141 3.183,-9.928C2.118,-10.262 1.057,-10.6 0,-10.955" style="fill:#fff;fill-rule:nonzero;"/>
                </g>
                <g transform="matrix(1,0,0,1,629.352,569.966)">
                    <path d="M0,-6.07C-5.313,-8.912 -10.432,-12.179 -15.277,-15.822C-21.077,-13.14 -28.406,-10.011 -35.393,-7.115C-42.706,-4.086 -49.642,-1.31 -54.049,0.436C-51.649,2.315 -49.172,4.073 -46.617,5.684C-44.532,7.121 -42.41,8.471 -40.26,9.752C-36.152,7.881 -30.021,5.446 -23.412,2.897C-15.373,-0.203 -6.641,-3.465 0,-6.07" style="fill:#fff;fill-rule:nonzero;"/>
                </g>
            </g>
        </g>
    </g>
</svg>
