<?xml version="1.0" encoding="UTF-8" standalone="no"?>
<!DOCTYPE svg PUBLIC "-//W3C//DTD SVG 1.1//EN" "http://www.w3.org/Graphics/SVG/1.1/DTD/svg11.dtd">
<svg width="100%" height="100%" viewBox="0 0 128 128" version="1.1" xmlns="http://www.w3.org/2000/svg" xmlns:xlink="http://www.w3.org/1999/xlink" xml:space="preserve" xmlns:serif="http://www.serif.com/" style="fill-rule:evenodd;clip-rule:evenodd;stroke-linejoin:round;stroke-miterlimit:2;">
    <g transform="matrix(0.838672,0.544637,-0.544637,0.838672,20.1766,-14.675)">
        <path d="M58.3,92.7C53.3,92 44.5,102.3 49.3,106.7C49.362,106.465 49.428,106.232 49.5,106C49.997,103.293 52.452,101.355 55.2,101.5C58,101.6 59.5,103 59.9,106.2C60.1,107.3 60.1,108.5 60.1,109.7L60.1,110.1C60.1,112.8 60.8,115.3 62.3,117.5C63.676,119.659 65.659,121.364 68,122.4L68,122.1L67.8,121.8C66,116.2 67.3,112.3 72.2,109L73.7,108C74.786,107.295 75.853,106.562 76.9,105.8C80.708,103.165 83.191,99.003 83.7,94.4C84,92.4 83.8,90.4 83.1,88.4L82.3,89L80.7,90C73.698,93.21 65.865,94.154 58.3,92.7Z" style="fill-rule:nonzero;"/>
    </g>
    <g transform="matrix(1,0,0,1,19.7716,0.177374)">
        <path d="M75.394,58.138L88.067,45.463C97.312,36.22 97.312,21.177 88.067,11.934C78.823,2.688 63.781,2.688 54.537,11.934L36.248,30.223C27.003,39.466 27.003,54.509 36.248,63.752C37.613,65.118 39.107,66.276 40.688,67.238L50.479,57.446C48.614,57 46.845,56.059 45.393,54.608C41.191,50.406 41.191,43.568 45.393,39.367L63.682,21.078C67.884,16.876 74.722,16.876 78.923,21.078C83.125,25.28 83.125,32.117 78.923,36.319L73.55,41.693C75.764,46.904 76.376,52.635 75.394,58.138Z" style="fill-rule:nonzero;"/>
    </g>
    <g transform="matrix(1,0,0,1,19.7716,0.177374)">
        <path d="M24.607,41.862L11.934,54.536C2.688,63.78 2.688,78.822 11.934,88.066C21.177,97.311 36.22,97.311 45.464,88.066L63.752,69.777C72.997,60.533 72.996,45.491 63.752,36.248C62.388,34.882 60.894,33.724 59.313,32.762L49.522,42.554C51.386,43.001 53.155,43.94 54.608,45.392C58.81,49.594 58.81,56.431 54.608,60.633L36.318,78.922C32.116,83.124 25.279,83.124 21.077,78.922C16.875,74.72 16.875,67.883 21.077,63.681L26.451,58.308C24.236,53.097 23.624,47.365 24.607,41.862Z" style="fill-rule:nonzero;"/>
    </g>
</svg>
